<svg xmlns="http://www.w3.org/2000/svg" viewBox="0 0 512 512">
  <circle cx="256" cy="256" r="256" fill="#111318"/>
  <circle cx="216" cy="176" r="7" fill="#ffffff"/>
  <circle cx="236" cy="176" r="7" fill="#ffffff"/>
  <circle cx="256" cy="176" r="7" fill="#ffffff"/>
  <circle cx="276" cy="176" r="7" fill="#ffffff"/>
  <circle cx="296" cy="176" r="7" fill="#ffffff"/>
  <circle cx="316" cy="176" r="7" fill="#ffffff"/>
  <circle cx="336" cy="176" r="7" fill="#ffffff"/>
  <circle cx="356" cy="176" r="7" fill="#ffffff"/>
  <circle cx="376" cy="176" r="7" fill="#ffffff"/>
  <circle cx="396" cy="176" r="7" fill="#ffffff"/>
  <circle cx="416" cy="176" r="7" fill="#ffffff"/>
  <circle cx="176" cy="196" r="7" fill="#ffffff"/>
  <circle cx="196" cy="196" r="7" fill="#ffffff"/>
  <circle cx="216" cy="196" r="7" fill="#ffffff"/>
  <circle cx="236" cy="196" r="7" fill="#ffffff"/>
  <circle cx="256" cy="196" r="7" fill="#ffffff"/>
  <circle cx="276" cy="196" r="7" fill="#ffffff"/>
  <circle cx="296" cy="196" r="7" fill="#ffffff"/>
  <circle cx="316" cy="196" r="7" fill="#ffffff"/>
  <circle cx="336" cy="196" r="7" fill="#ffffff"/>
  <circle cx="356" cy="196" r="7" fill="#ffffff"/>
  <circle cx="376" cy="196" r="7" fill="#ffffff"/>
  <circle cx="396" cy="196" r="7" fill="#ffffff"/>
  <circle cx="416" cy="196" r="7" fill="#ffffff"/>
  <circle cx="36" cy="216" r="7" fill="#ffffff"/>
  <circle cx="56" cy="216" r="7" fill="#ffffff"/>
  <circle cx="76" cy="216" r="7" fill="#ffffff"/>
  <circle cx="96" cy="216" r="7" fill="#ffffff"/>
  <circle cx="156" cy="216" r="7" fill="#ffffff"/>
  <circle cx="176" cy="216" r="7" fill="#4a505c"/>
  <circle cx="196" cy="216" r="7" fill="#4a505c"/>
  <circle cx="216" cy="216" r="7" fill="#4a505c"/>
  <circle cx="236" cy="216" r="7" fill="#4a505c"/>
  <circle cx="256" cy="216" r="7" fill="#4a505c"/>
  <circle cx="276" cy="216" r="7" fill="#4a505c"/>
  <circle cx="296" cy="216" r="7" fill="#4a505c"/>
  <circle cx="316" cy="216" r="7" fill="#4a505c"/>
  <circle cx="336" cy="216" r="7" fill="#4a505c"/>
  <circle cx="356" cy="216" r="7" fill="#4a505c"/>
  <circle cx="376" cy="216" r="7" fill="#4a505c"/>
  <circle cx="396" cy="216" r="7" fill="#4a505c"/>
  <circle cx="416" cy="216" r="7" fill="#ffffff"/>
  <circle cx="136" cy="236" r="7" fill="#ffffff"/>
  <circle cx="156" cy="236" r="7" fill="#4a505c"/>
  <circle cx="176" cy="236" r="7" fill="#4a505c"/>
  <circle cx="196" cy="236" r="7" fill="#4a505c"/>
  <circle cx="216" cy="236" r="7" fill="#4a505c"/>
  <circle cx="236" cy="236" r="7" fill="#4a505c"/>
  <circle cx="256" cy="236" r="7" fill="#4a505c"/>
  <circle cx="276" cy="236" r="7" fill="#4a505c"/>
  <circle cx="296" cy="236" r="7" fill="#4a505c"/>
  <circle cx="316" cy="236" r="7" fill="#4a505c"/>
  <circle cx="336" cy="236" r="7" fill="#4a505c"/>
  <circle cx="356" cy="236" r="7" fill="#4a505c"/>
  <circle cx="376" cy="236" r="7" fill="#4a505c"/>
  <circle cx="396" cy="236" r="7" fill="#4a505c"/>
  <circle cx="416" cy="236" r="7" fill="#ffffff"/>
  <circle cx="56" cy="256" r="7" fill="#ffffff"/>
  <circle cx="76" cy="256" r="7" fill="#ffffff"/>
  <circle cx="96" cy="256" r="7" fill="#ffffff"/>
  <circle cx="136" cy="256" r="7" fill="#ffffff"/>
  <circle cx="156" cy="256" r="7" fill="#ffffff"/>
  <circle cx="176" cy="256" r="7" fill="#ffffff"/>
  <circle cx="196" cy="256" r="7" fill="#ffffff"/>
  <circle cx="216" cy="256" r="7" fill="#ffffff"/>
  <circle cx="236" cy="256" r="7" fill="#ffffff"/>
  <circle cx="256" cy="256" r="7" fill="#ffffff"/>
  <circle cx="276" cy="256" r="7" fill="#ffffff"/>
  <circle cx="296" cy="256" r="7" fill="#ffffff"/>
  <circle cx="316" cy="256" r="7" fill="#ffffff"/>
  <circle cx="336" cy="256" r="7" fill="#ffffff"/>
  <circle cx="356" cy="256" r="7" fill="#ffffff"/>
  <circle cx="376" cy="256" r="7" fill="#ffffff"/>
  <circle cx="396" cy="256" r="7" fill="#ffffff"/>
  <circle cx="416" cy="256" r="7" fill="#ffffff"/>
  <circle cx="136" cy="276" r="7" fill="#ffffff"/>
  <circle cx="156" cy="276" r="7" fill="#ffffff"/>
  <circle cx="176" cy="276" r="7" fill="#ffffff"/>
  <circle cx="196" cy="276" r="7" fill="#ffffff"/>
  <circle cx="216" cy="276" r="7" fill="#ffffff"/>
  <circle cx="236" cy="276" r="7" fill="#ffffff"/>
  <circle cx="256" cy="276" r="7" fill="#ffffff"/>
  <circle cx="276" cy="276" r="7" fill="#ffffff"/>
  <circle cx="296" cy="276" r="7" fill="#ffffff"/>
  <circle cx="316" cy="276" r="7" fill="#ffffff"/>
  <circle cx="336" cy="276" r="7" fill="#ffffff"/>
  <circle cx="356" cy="276" r="7" fill="#ffffff"/>
  <circle cx="376" cy="276" r="7" fill="#ffffff"/>
  <circle cx="396" cy="276" r="7" fill="#ffffff"/>
  <circle cx="416" cy="276" r="7" fill="#ffffff"/>
  <circle cx="36" cy="296" r="7" fill="#ffffff"/>
  <circle cx="56" cy="296" r="7" fill="#ffffff"/>
  <circle cx="76" cy="296" r="7" fill="#ffffff"/>
  <circle cx="176" cy="296" r="7" fill="#8c52ff"/>
  <circle cx="196" cy="296" r="7" fill="#8c52ff"/>
  <circle cx="356" cy="296" r="7" fill="#8c52ff"/>
  <circle cx="376" cy="296" r="7" fill="#8c52ff"/>
  <circle cx="96" cy="336" r="7" fill="#4a505c"/>
  <circle cx="116" cy="336" r="7" fill="#4a505c"/>
  <circle cx="136" cy="336" r="7" fill="#4a505c"/>
  <circle cx="156" cy="336" r="7" fill="#4a505c"/>
  <circle cx="176" cy="336" r="7" fill="#4a505c"/>
  <circle cx="196" cy="336" r="7" fill="#4a505c"/>
  <circle cx="216" cy="336" r="7" fill="#4a505c"/>
  <circle cx="236" cy="336" r="7" fill="#4a505c"/>
  <circle cx="256" cy="336" r="7" fill="#4a505c"/>
  <circle cx="276" cy="336" r="7" fill="#4a505c"/>
  <circle cx="296" cy="336" r="7" fill="#4a505c"/>
  <circle cx="316" cy="336" r="7" fill="#4a505c"/>
  <circle cx="336" cy="336" r="7" fill="#4a505c"/>
  <circle cx="356" cy="336" r="7" fill="#4a505c"/>
  <circle cx="376" cy="336" r="7" fill="#4a505c"/>
  <circle cx="396" cy="336" r="7" fill="#4a505c"/>
  <circle cx="416" cy="336" r="7" fill="#4a505c"/>
  <circle cx="436" cy="336" r="7" fill="#4a505c"/>
</svg>
